<svg width="30" height="29" viewBox="0 0 30 29" fill="none" xmlns="http://www.w3.org/2000/svg">
<path d="M15 27.1875C12.4041 27.1875 9.86654 26.4434 7.70815 25.0493C5.54975 23.6552 3.86749 21.6736 2.87409 19.3553C1.88069 17.037 1.62077 14.4859 2.1272 12.0248C2.63363 9.56366 3.88367 7.30297 5.71923 5.52859C7.55479 3.75421 9.89345 2.54584 12.4394 2.05629C14.9854 1.56674 17.6244 1.818 20.0227 2.77828C22.421 3.73857 24.4709 5.36476 25.913 7.45121C27.3552 9.53766 28.125 11.9907 28.125 14.5C28.125 17.8649 26.7422 21.0921 24.2808 23.4714C21.8194 25.8508 18.481 27.1875 15 27.1875ZM15 3.62501C12.775 3.62501 10.5999 4.26281 8.74984 5.45777C6.89979 6.65273 5.45785 8.35118 4.60636 10.3383C3.75488 12.3255 3.53209 14.5121 3.96617 16.6216C4.40026 18.7312 5.47171 20.6689 7.04505 22.1898C8.6184 23.7107 10.623 24.7464 12.8052 25.166C14.9875 25.5857 17.2495 25.3703 19.3052 24.5472C21.3609 23.7241 23.1179 22.3302 24.354 20.5418C25.5902 18.7534 26.25 16.6509 26.25 14.5C26.25 11.6158 25.0647 8.84968 22.955 6.81022C20.8452 4.77076 17.9837 3.62501 15 3.62501Z" fill="black" fill-opacity="0.58"/>
<path d="M19.3031 19.9375L14.0625 14.8716V6.34375H15.9375V14.1194L20.625 18.6597L19.3031 19.9375Z" fill="black" fill-opacity="0.58"/>
</svg>
