<svg width="35" height="29" viewBox="0 0 35 29" fill="none" xmlns="http://www.w3.org/2000/svg">
<path fill-rule="evenodd" clip-rule="evenodd" d="M26.1414 9.81772C26.6824 10.3125 26.5169 11.072 25.857 11.455L22.3045 13.5201C21.6453 13.9031 20.7441 13.7484 20.0929 13.3569C19.36 12.9147 18.4802 12.6708 17.5737 12.6585C16.6671 12.6461 15.778 12.8655 15.0274 13.2868C14.3602 13.6608 13.4539 13.7907 12.8107 13.3896L9.34209 11.2278C8.69897 10.8267 8.56334 10.0624 9.12407 9.58331C10.2345 8.63449 11.5679 7.88442 13.0419 7.37942C14.5159 6.87443 16.0993 6.62525 17.6941 6.64728C19.289 6.6693 20.8615 6.96207 22.3144 7.50748C23.7673 8.0529 25.0698 8.83938 26.1414 9.81833V9.81772ZM24.9346 10.5161C23.9997 9.69291 22.8752 9.03329 21.6274 8.57627C20.3796 8.11925 19.034 7.87409 17.6699 7.85527C16.3059 7.83646 14.9511 8.04438 13.6857 8.46675C12.4203 8.88911 11.2698 9.51735 10.3024 10.3143L13.6843 12.4217C13.7153 12.4278 13.7475 12.429 13.7791 12.4253C13.8936 12.4168 14.054 12.3733 14.2093 12.2863C15.2397 11.7079 16.4654 11.4159 17.7093 11.4526C17.737 11.4043 17.7734 11.3583 17.8179 11.3161L19.8202 9.4081C19.9471 9.28712 20.1267 9.21285 20.3197 9.20164C20.5126 9.19042 20.7031 9.24317 20.8491 9.34829C20.9951 9.4534 21.0847 9.60227 21.0982 9.76214C21.1118 9.92201 21.0481 10.0798 20.9213 10.2008L19.3499 11.6979C19.9225 11.8553 20.4624 12.085 20.9504 12.3788C21.1021 12.47 21.2603 12.5177 21.3748 12.5298C21.4302 12.5359 21.4594 12.5316 21.4696 12.5292L24.9346 10.5161ZM21.4762 12.5274L21.4703 12.5292C21.4732 12.5274 21.4754 12.5268 21.4762 12.5274ZM13.6784 12.4199C13.6784 12.4199 13.6806 12.4199 13.6843 12.4217L13.6784 12.4199Z" fill="black" fill-opacity="0.64"/>
<path fill-rule="evenodd" clip-rule="evenodd" d="M26.4076 25.375C27.1532 25.375 27.8704 25.1385 28.4121 24.714C28.9537 24.2895 29.2785 23.7092 29.3199 23.0925L30.4545 6.17579C30.4765 5.84763 30.4175 5.5192 30.2811 5.21058C30.1447 4.90197 29.9337 4.61964 29.6611 4.38089C29.3886 4.14213 29.06 3.95195 28.6957 3.82198C28.3314 3.69201 27.9389 3.62499 27.5422 3.625H7.45805C7.06145 3.62507 6.66903 3.69216 6.30478 3.82216C5.94053 3.95217 5.61211 4.14236 5.3396 4.38111C5.06708 4.61986 4.85619 4.90215 4.71982 5.21073C4.58346 5.5193 4.52448 5.84768 4.54649 6.17579L5.68034 23.0925C5.72172 23.7092 6.04659 24.2895 6.58821 24.714C7.12983 25.1385 7.84709 25.375 8.59263 25.375H26.4076ZM8.59263 24.1667H26.4076C26.7805 24.1667 27.1393 24.0483 27.4101 23.8359C27.6809 23.6236 27.8433 23.3333 27.8638 23.0248L28.9984 6.10812C29.0093 5.94409 28.9797 5.77995 28.9114 5.62571C28.8432 5.47147 28.7377 5.33038 28.6014 5.21107C28.4651 5.09176 28.3009 4.99672 28.1188 4.93177C27.9367 4.86683 27.7405 4.83333 27.5422 4.83333H7.45805C7.25978 4.83333 7.0636 4.86683 6.88148 4.93177C6.69937 4.99672 6.53515 5.09176 6.39886 5.21107C6.26257 5.33038 6.15708 5.47147 6.08883 5.62571C6.02058 5.77995 5.991 5.94409 6.0019 6.10812L7.13649 23.0248C7.157 23.3333 7.31935 23.6236 7.59018 23.8359C7.86101 24.0483 8.21974 24.1667 8.59263 24.1667Z" fill="black" fill-opacity="0.64"/>
</svg>
